<svg width="24" height="24" viewBox="0 0 24 24" fill="none" xmlns="http://www.w3.org/2000/svg"><path fill-rule="evenodd" clip-rule="evenodd" d="M10.707 3.293a1 1 0 0 1 0 1.414L7.414 8h9.172l-3.293-3.293a1 1 0 0 1 1.414-1.414L19.414 8H23a1 1 0 1 1 0 2h-.165l-1.553 8.537A3 3 0 0 1 18.331 21H5.669a3 3 0 0 1-2.951-2.463L1.165 10H1a1 1 0 0 1 0-2h3.586l4.707-4.707a1 1 0 0 1 1.414 0zM3.198 10l1.487 8.179A1 1 0 0 0 5.67 19h12.662a1 1 0 0 0 .984-.821L20.802 10H3.198zm4.138 2.014a1 1 0 0 1 1.15.822l.5 3a1 1 0 1 1-1.972.328l-.5-3a1 1 0 0 1 .822-1.15zm9.328 0a1 1 0 0 1 .822 1.15l-.5 3a1 1 0 1 1-1.972-.328l.5-3a1 1 0 0 1 1.15-.822zM12 12a1 1 0 0 1 1 1v3a1 1 0 1 1-2 0v-3a1 1 0 0 1 1-1z" fill="#000"/></svg>